PathFileType	4	(X/Y/Z)	D:\TRACE\v60_Jaco2_6-2-23\BothDRS_Motion2_3-v60.trc
DataRate	CameraRate	NumFrames	NumMarkers	Units	OrigDataRate	OrigDataStartFrame	OrigNumFrames
100.00	100.00	      35	9	mm	100.00	1	      7500
Frame#	Time	front left toe			Front right toe			aft left toe			aft right toe			Arm			FL body			FR body			AL Body			AR Body			
		X1	Y1	Z1	X2	Y2	Z2	X3	Y3	Z3	X4	Y4	Z4	X5	Y5	Z5	X6	Y6	Z6	X7	Y7	Z7	X8	Y8	Z8	X9	Y9	Z9	

1	0.000	-144.60837	19.02052	-138.01639	258.85712	17.48180	-145.09262	-141.58154	16.17157	502.71249	266.80185	18.50177	464.73810	70.03540	1206.05139	-170.88173	-24.42742	575.90521	-280.10184	136.13243	575.03040	-284.15640	-0.05887	574.58411	665.84222	157.69783	568.69531	664.61816	
2	0.010	-144.62823	19.06152	-137.99887	258.79880	17.45755	-145.12402	-141.59509	16.16232	502.72244	266.70377	18.45049	464.69583	70.01871	1205.99976	-170.88762	-24.41168	575.88354	-280.10495	135.72656	574.89178	-283.87302	-0.09743	574.59424	665.84277	157.69495	568.70782	664.60425	
3	0.020	-144.66022	19.01756	-138.00641	258.82510	17.47846	-145.10794	-141.56769	16.13502	502.74017	266.71423	18.48796	464.69510	69.96770	1205.99597	-170.86995	-24.47101	575.86725	-280.09918	136.09904	575.00769	-284.17487	-0.07149	574.56232	665.83765	157.63356	568.71344	664.62402	
4	0.030	-144.62547	19.00477	-137.99617	258.82257	17.44201	-145.12309	-141.56329	16.16865	502.74823	266.70187	18.46779	464.71198	69.96206	1206.01941	-170.84891	-24.52161	575.87469	-280.08536	135.69106	574.89264	-283.85123	-0.09395	574.58929	665.83905	157.63939	568.72559	664.59943	
5	0.040	-144.58696	19.02983	-138.02205	258.80856	17.47328	-145.11560	-141.58661	16.14757	502.72345	266.73047	18.48107	464.70267	69.93703	1206.00940	-170.91060	-24.46115	575.84113	-280.08200	135.65950	574.85541	-283.85437	0.13645	574.42847	666.12677	157.65030	568.72839	664.62457	
6	0.050	-144.59332	19.01692	-138.00099	258.82693	17.45992	-145.13011	-141.58621	16.20228	502.76364	266.63724	18.39183	464.66791	69.94600	1206.01001	-170.90115	-24.49298	575.82507	-280.07440	135.64224	574.86908	-283.87451	-0.10126	574.58038	665.83929	157.68469	568.72974	664.60535	
7	0.060	-144.59425	19.06171	-138.00235	258.79968	17.45819	-145.10718	-141.57288	16.18338	502.71860	266.71634	18.43258	464.72168	69.89371	1205.83093	-170.99745	-24.55611	575.81262	-280.08228	136.05255	574.93872	-284.15341	-0.10513	574.60907	665.83099	157.64325	568.75537	664.61322	
8	0.070	-144.67487	19.09202	-137.96680	258.82489	17.44311	-145.12085	-141.59612	16.16589	502.71863	266.72067	18.46379	464.70590	69.84151	1205.94153	-170.95441	-24.57828	575.71295	-280.05890	136.03563	574.90997	-284.18973	-0.09234	574.58295	665.84381	157.69080	568.73126	664.58136	
9	0.080	-144.60870	19.04887	-138.00865	258.81436	17.43475	-145.12077	-141.57704	16.16134	502.73663	266.73929	18.50855	464.74658	69.74867	1205.75806	-171.07353	-24.63260	575.69672	-280.08240	135.99435	574.90576	-284.16498	-0.08688	574.58862	665.84894	157.66058	568.74463	664.59381	
10	0.090	-144.64714	19.08012	-137.96904	258.85129	17.42882	-145.11766	-141.57166	16.17033	502.71634	266.76233	18.49658	464.72775	69.74748	1205.78235	-171.20955	-24.61534	575.61035	-280.05887	135.96695	574.81262	-284.17966	-0.07711	574.60406	665.83575	157.70786	568.76752	664.57141	
11	0.100	-144.58861	19.01316	-137.97539	258.85516	17.45973	-145.11610	-141.61842	16.21332	502.70767	266.86139	18.53269	464.75272	69.70233	1205.78088	-171.22530	-24.61380	575.54742	-280.11066	135.91174	574.75854	-284.17798	-0.08037	574.60101	665.83606	157.72157	568.77264	664.55048	
12	0.110	-144.61462	19.05299	-137.97687	258.83527	17.45572	-145.10576	-141.60960	16.18228	502.71091	266.74619	18.50448	464.71375	69.63110	1206.02136	-171.22971	-24.69276	575.53638	-280.10556	135.44609	574.57562	-283.90714	-0.08471	574.59192	665.83356	157.73314	568.80573	664.52704	
13	0.120	-144.61928	19.02309	-137.95135	258.79578	17.40989	-145.13187	-141.59245	16.14539	502.76083	266.75241	18.49937	464.74405	69.55303	1205.98474	-171.24687	-24.71133	575.45490	-280.12674	135.39569	574.52936	-283.92755	-0.08142	574.59619	665.84760	157.69696	568.78625	664.54443	
14	0.130	-144.59418	19.06446	-137.98514	258.80713	17.42301	-145.11826	-141.58998	16.16488	502.74646	266.70056	18.46641	464.72394	69.49918	1205.95093	-171.25417	-24.71149	575.44098	-280.12073	135.36972	574.50433	-283.92899	-0.09853	574.59125	665.83838	157.65782	568.77380	664.53571	
15	0.140	-144.60757	19.05207	-137.98286	258.80881	17.45091	-145.11092	-141.56998	16.14237	502.75226	266.63843	18.43323	464.70779	69.38297	1205.97009	-171.28711	-24.74425	575.35046	-280.12381	135.32071	574.49561	-283.91562	-0.09187	574.58130	665.84052	157.70720	568.80847	664.51263	
16	0.150	-144.60158	19.00741	-137.95203	258.81720	17.43371	-145.13043	-141.60107	16.15106	502.78122	266.71976	18.46369	464.67990	69.31297	1205.98022	-171.29181	-24.82002	575.40302	-280.15305	135.25133	574.49109	-283.91046	-0.08522	574.60577	665.83618	157.76567	568.81512	664.49481	
17	0.160	-144.59953	19.03149	-137.96564	258.78827	17.45305	-145.13419	-141.59505	16.19310	502.73935	266.80826	18.49662	464.70374	69.23392	1205.99377	-171.29266	-24.84741	575.39337	-280.18433	135.10265	574.51001	-283.97284	0.12689	574.47614	666.11786	157.77522	568.83691	664.47150	
18	0.170	-144.62242	19.04289	-137.96808	258.79095	17.46928	-145.13646	-141.59697	16.13341	502.76205	266.77930	18.50408	464.68539	69.24181	1205.85791	-171.21095	-24.87141	575.39978	-280.19067	135.09207	574.48798	-283.94629	-0.08996	574.60059	665.82037	157.76964	568.85291	664.44458	
19	0.180	-144.59584	19.00194	-137.92070	258.78339	17.46635	-145.13452	-141.58443	16.13804	502.76083	266.74158	18.50915	464.69012	69.16879	1205.86987	-171.20609	-24.94279	575.40082	-280.22150	135.03873	574.54858	-283.99081	-0.15037	574.62872	665.81848	157.77802	568.84467	664.44434	
20	0.190	-144.66037	19.03238	-137.96869	258.77753	17.48618	-145.13911	-141.58835	16.12790	502.76459	266.70868	18.48771	464.67709	69.09503	1205.87170	-171.20332	-25.00194	575.36993	-280.23419	134.94368	574.52905	-283.98627	-0.10509	574.59546	665.81793	157.74094	568.85266	664.44592	
21	0.200	-144.58916	18.96172	-137.94835	258.80569	17.49824	-145.10962	-141.60121	16.11036	502.74423	266.73447	18.49807	464.66232	68.90686	1205.82666	-171.24370	-25.01410	575.35089	-280.24985	134.81525	574.52686	-284.03403	0.10654	574.44385	666.09784	157.73508	568.85504	664.44989	
22	0.210	-144.57042	18.96671	-137.94930	258.79910	17.48805	-145.15379	-141.62083	16.14144	502.75168	266.81339	18.53992	464.68433	68.85049	1205.79395	-171.26704	-25.02951	575.35272	-280.26306	134.80357	574.49133	-284.00421	0.12911	574.43048	666.08948	157.74368	568.87366	664.45056	
23	0.220	-144.63406	18.97334	-137.93512	258.73886	17.48766	-145.16348	-141.60425	16.12754	502.76294	266.74255	18.53192	464.69052	68.71550	1205.80249	-171.28482	-25.17034	575.32385	-280.31290	134.77368	574.47845	-284.03018	0.09050	574.44604	666.08282	157.73300	568.88196	664.43561	
24	0.230	-144.65279	19.02964	-137.90529	258.77908	17.48948	-145.13800	-141.61874	16.11486	502.74838	266.72351	18.51779	464.67038	68.62269	1205.71826	-171.36140	-25.15427	575.26874	-280.28751	134.73732	574.46130	-284.01801	0.09669	574.42804	666.09680	157.70193	568.88086	664.42853	
25	0.240	-144.66621	18.99592	-137.95915	258.77802	17.51482	-145.12369	-141.63185	16.11087	502.76459	266.64719	18.49234	464.67029	68.52985	1205.66064	-171.36333	-25.22915	575.27765	-280.32532	134.61922	574.48956	-284.05563	-0.21492	574.63702	665.79120	157.70654	568.88226	664.43164	
26	0.250	-144.66370	19.01011	-137.93912	258.78226	17.48204	-145.14931	-141.63135	16.14080	502.76337	266.76712	18.58340	464.73196	68.41042	1205.67725	-171.43671	-25.22894	575.22906	-280.31281	134.63535	574.43658	-284.03079	0.03530	574.45258	666.06122	157.66266	568.90472	664.40686	
27	0.260	-144.64830	18.99458	-137.94435	258.77951	17.48708	-145.14397	-141.61493	16.13009	502.76395	266.77701	18.57602	464.70703	68.40822	1205.64490	-171.45766	-25.31067	575.24579	-280.34036	134.57732	574.45453	-284.06073	-0.19339	574.62079	665.79437	157.68697	568.92352	664.40863	
28	0.270	-144.62050	18.99811	-137.90091	258.82086	17.51080	-145.14983	-141.62903	16.16335	502.73013	266.75793	18.51516	464.67944	68.34229	1205.62244	-171.45819	-25.31290	575.21722	-280.32043	134.59462	574.43866	-284.02338	-0.19221	574.62488	665.79401	157.69870	568.90576	664.41199	
29	0.280	-144.64583	19.02353	-137.92966	258.73489	17.48446	-145.14597	-141.59402	16.12570	502.76270	266.73782	18.52907	464.67902	68.29551	1205.70044	-171.46539	-25.35075	575.22046	-280.32642	134.48401	574.43280	-284.06833	-0.23305	574.64423	665.79584	157.63350	568.90820	664.41449	
30	0.290	-144.59621	19.02283	-137.91919	258.73758	17.48439	-145.15773	-141.62242	16.09454	502.73764	266.72321	18.53660	464.68277	68.25221	1205.66638	-171.46037	-25.36991	575.19666	-280.31668	134.45689	574.43823	-284.07556	-0.08837	574.50275	666.00922	157.66667	568.94177	664.39185	
31	0.300	-144.57906	18.99490	-137.92410	258.72290	17.47157	-145.15840	-141.61348	16.09982	502.74954	266.66550	18.50183	464.68527	68.10571	1205.68079	-171.48167	-25.45321	575.18390	-280.34326	134.46182	574.44470	-284.07736	-0.29664	574.65106	665.76239	157.61833	568.95496	664.38763	
32	0.310	-144.62177	18.98033	-137.91115	258.72879	17.47806	-145.17068	-141.62299	16.11969	502.77203	266.70343	18.50979	464.67416	68.02175	1205.62170	-171.53677	-25.42582	575.18152	-280.33807	134.37036	574.41150	-284.11972	-0.11613	574.55115	666.00787	157.61766	568.95300	664.38306	
33	0.320	-144.63734	19.00182	-137.94029	258.76563	17.50411	-145.18048	-141.59750	16.13150	502.75253	266.72409	18.52533	464.69995	68.09336	1205.64331	-171.56671	-25.53172	575.15894	-280.32733	134.32553	574.45782	-284.12616	-0.30999	574.69147	665.74963	157.65112	568.95599	664.39001	
34	0.330	-144.62498	18.98671	-137.95442	258.74222	17.47479	-145.16969	-141.60789	16.10507	502.74466	266.72537	18.53911	464.69095	67.94714	1205.60889	-171.60289	-25.53733	575.17059	-280.33157	134.39928	574.42303	-284.10446	-0.10010	574.52271	666.00165	157.62907	568.97803	664.38556	
35	0.340	-144.70152	19.04852	-137.92171	258.74509	17.49615	-145.15332	-141.61525	16.12710	502.75742	266.68600	18.50784	464.68918	67.85886	1205.60547	-171.65163	-25.48301	575.13171	-280.33035	134.36848	574.39032	-284.09650	-0.15930	574.53888	665.99158	157.60548	568.98370	664.35211	
